<svg xmlns="http://www.w3.org/2000/svg" viewBox="0 0 48 48" width="48" height="48">
  <rect width="48" height="48" rx="8" fill="#FFFFFF"/>
  <rect x="0.5" y="0.5" width="47" height="47" rx="7.5" fill="none" stroke="rgba(0,0,0,0.08)" stroke-width="1"/>
  <g transform="translate(4.0, 16.0) scale(0.04)">
    <!-- e (red) -->
    <path fill="#F12C2D" d="m 199.636,185.866 c -1.944,-46.877 -35.78,-64.42 -71.941,-64.42 -38.994,0 -70.127,19.733 -75.58,64.42 z M 51.034,219.191 c 2.704,45.484 34.07,72.384 77.198,72.384 29.88,0 56.46,-12.175 65.359,-38.66 h 51.684 c -10.052,53.74 -67.154,71.981 -116.303,71.981 C 39.606,324.895 0,275.679 0,209.307 0,136.242 40.966,88.122 129.788,88.122 c 70.699,0 122.5,37 122.5,117.756 v 13.313 z"/>
    <!-- b (blue) -->
    <path fill="#0968F6" d="m 380.832,290.624 c 46.572,0 78.441,-33.522 78.441,-84.109 0,-50.582 -31.869,-84.109 -78.441,-84.109 -46.311,0 -78.444,33.527 -78.444,84.109 0,50.587 32.133,84.109 78.444,84.109 z M 252.285,0 h 50.102 l -0.005,125.877 c 24.557,-29.26 58.389,-37.755 91.69,-37.755 55.835,0 117.851,37.677 117.851,119.029 0,68.122 -49.322,117.745 -118.781,117.745 -36.357,0 -70.581,-13.043 -91.687,-38.883 0,10.321 -0.576,20.724 -1.705,30.564 h -49.172 c 0.855,-15.909 1.706,-35.718 1.706,-51.747 z"/>
    <!-- a (yellow) -->
    <path fill="#FFBC13" d="m 633.078,212.533 c -45.439,1.489 -73.672,9.689 -73.672,39.619 0,19.376 15.447,40.382 54.663,40.382 52.577,0 80.643,-28.659 80.643,-75.663 l 0.003,-5.17 c -18.433,0 -41.164,0.161 -61.637,0.832 z m 111.751,62.102 c 0,14.583 0.422,28.978 1.694,41.941 h -46.614 c -1.243,-10.674 -1.697,-21.279 -1.697,-31.567 -25.202,30.98 -55.177,39.886 -96.761,39.886 -61.677,0 -94.701,-32.6 -94.701,-70.307 0,-54.612 44.916,-73.867 122.89,-75.654 21.323,-0.487 45.274,-0.559 65.075,-0.559 l -0.003,-5.336 c 0,-36.561 -23.444,-51.593 -64.068,-51.593 -30.159,0 -52.386,12.48 -54.676,34.046 h -52.652 c 5.572,-53.771 62.066,-67.371 111.74,-67.371 59.508,0 109.772,21.173 109.772,84.115 z"/>
    <!-- y (green) -->
    <path fill="#93C822" d="M 1000,96.457 845.055,400.751 H 788.949 L 833.496,316.256 716.89,96.457 h 58.627 l 85.805,171.731 85.563,-171.731 z"/>
  </g>
</svg>