<svg xmlns="http://www.w3.org/2000/svg" viewBox="0 0 48 48" width="48" height="48">
  <rect width="48" height="48" rx="6" fill="#FFD400"/>
  <rect x="1.25" y="1.25" width="45.5" height="45.5" rx="5" fill="none" stroke="#005CA9" stroke-width="2.5"/>
  <g transform="translate(8, 5)">
    <g fill="#005CA9">
      <!-- Top, middle, bottom horizontal bars of the large E -->
      <path d="m3.64 3.78h24.7v6.54h-17.08v2.55h17.08v6.54h-17.08v2.55h17.08v6.54h-24.7z"/>
      <!-- EDEKA letters -->
      <path d="m8.84 31.01h2.59c1.2 0 2.18.98 2.18 2.18 0 1.21-.97 2.2-2.18 2.2h-2.59z"/>
      <path d="m19.38 31.01h1.35v1.67l1.53-1.67h1.78l-1.72 1.87 1.87 2.52h-1.72l-1.1-1.49-.63.66v.84h-1.35z"/>
      <path d="m25.78 31.01h2.02l1.51 4.38h-1.36l-.28-.9h-1.74l-.3.9h-1.35z"/>
    </g>
    <g>
      <path d="m26.27 33.46h1.04l-.52-1.48z" fill="#FFD400"/>
      <path d="m10.19 32.17h1.06c.57 0 1.04.46 1.04 1.03 0 .57-.47 1.04-1.04 1.04h-1.06z" fill="#FFD400"/>
      <path d="m3.63 31.01h4.38v1.14h-3.03v.48h3.03v1.14h-3.03v.48h3.03v1.14h-4.38z" fill="#005CA9"/>
      <path d="m14.2 31.01h4.39v1.14h-3.03v.48h3.03v1.14h-3.03v.48h3.03v1.14h-4.39z" fill="#005CA9"/>
    </g>
  </g>
</svg>
